<?xml version="1.0" standalone="no"?>
<!DOCTYPE svg PUBLIC "-//W3C//DTD SVG 20010904//EN"
 "http://www.w3.org/TR/2001/REC-SVG-20010904/DTD/svg10.dtd">
<svg version="1.0" xmlns="http://www.w3.org/2000/svg"
 width="1024.000000pt" height="1024.000000pt" viewBox="0 0 1024.000000 1024.000000"
 preserveAspectRatio="xMidYMid meet">
<metadata>
Created by potrace 1.14, written by Peter Selinger 2001-2017
</metadata>
<g transform="translate(0.000000,1024.000000) scale(0.100000,-0.100000)"
fill="#000000" stroke="none">
<path d="M5035 10231 c-37 -10 -147 -64 -186 -92 -16 -11 -29 -17 -29 -12 0 4
-4 3 -8 -3 -4 -5 -70 -46 -147 -90 -365 -210 -481 -277 -496 -290 -8 -8 -20
-14 -25 -14 -5 0 -26 -11 -47 -25 -20 -14 -37 -23 -37 -19 0 4 -8 0 -17 -8
-15 -12 -167 -103 -318 -188 -16 -9 -65 -38 -108 -64 -43 -25 -80 -46 -82 -46
-2 0 -32 -17 -66 -38 -35 -22 -84 -50 -109 -64 -122 -69 -414 -238 -465 -269
-16 -11 -46 -27 -65 -36 -19 -10 -37 -20 -40 -23 -4 -5 -224 -133 -340 -198
-51 -28 -106 -61 -135 -79 -11 -7 -36 -21 -55 -31 -72 -39 -105 -57 -110 -62
-4 -5 -121 -73 -258 -151 -18 -11 -93 -54 -165 -96 -73 -42 -206 -119 -297
-171 -91 -52 -169 -98 -175 -102 -5 -4 -30 -19 -55 -32 -25 -14 -85 -49 -135
-78 -49 -29 -106 -61 -125 -72 -146 -84 -181 -104 -222 -130 -26 -16 -50 -39
-54 -50 -11 -37 -7 -583 5 -605 11 -21 131 -103 151 -103 5 0 10 -5 10 -11 0
-5 4 -8 9 -4 5 3 12 1 15 -4 3 -5 52 -35 108 -67 57 -31 111 -65 122 -73 10
-9 21 -16 25 -15 3 1 22 -9 41 -21 19 -12 55 -32 80 -46 25 -13 47 -27 50 -30
3 -4 15 -9 28 -13 12 -4 22 -12 22 -17 0 -6 5 -7 10 -4 6 3 10 1 10 -4 0 -6 5
-11 10 -11 6 0 27 -11 48 -24 20 -12 40 -23 43 -22 4 1 15 -6 25 -15 11 -9 39
-27 64 -40 25 -13 47 -27 50 -30 3 -3 12 -8 20 -12 8 -4 33 -18 55 -32 22 -14
52 -30 67 -36 16 -6 28 -15 28 -20 0 -5 5 -9 11 -9 5 0 63 -31 128 -70 65 -38
124 -70 130 -70 6 0 11 -4 11 -8 0 -4 22 -19 50 -33 27 -13 50 -27 50 -31 0
-5 4 -8 9 -8 5 0 55 -27 111 -60 56 -33 104 -60 106 -60 3 0 28 -15 57 -33 29
-18 95 -57 147 -87 52 -29 97 -56 100 -60 3 -3 16 -11 30 -17 14 -7 48 -26 75
-43 28 -16 57 -33 65 -37 8 -3 39 -21 68 -40 29 -18 58 -34 65 -36 7 -1 14 -5
17 -8 7 -10 91 -58 123 -72 15 -6 27 -15 27 -19 0 -4 4 -8 9 -8 5 0 55 -27
111 -60 56 -33 106 -60 111 -60 5 0 9 -4 9 -10 0 -5 4 -10 9 -10 5 0 82 -43
172 -96 90 -53 182 -106 204 -119 102 -58 272 -156 285 -165 8 -6 23 -13 33
-16 9 -4 17 -10 17 -15 0 -5 5 -9 10 -9 6 0 29 -12 53 -27 23 -14 48 -26 54
-26 7 0 13 -4 13 -9 0 -5 11 -13 24 -17 13 -5 48 -26 79 -45 31 -20 58 -36 61
-36 3 0 36 -19 73 -42 38 -22 93 -55 123 -71 30 -16 62 -35 70 -41 8 -6 35
-22 60 -35 25 -13 52 -30 60 -37 9 -7 31 -20 50 -29 19 -9 47 -23 62 -33 52
-34 121 -72 129 -72 5 0 9 -3 9 -7 0 -5 10 -13 23 -18 34 -17 111 -59 117 -66
3 -3 37 -23 75 -44 39 -22 79 -45 90 -52 11 -7 27 -15 35 -19 12 -7 107 -62
160 -94 8 -5 87 -50 175 -101 88 -50 162 -95 163 -100 2 -5 12 -9 23 -9 10 0
19 -4 19 -9 0 -5 8 -11 18 -15 19 -6 98 -51 116 -65 6 -4 31 -20 56 -33 25
-14 61 -34 80 -45 19 -11 51 -29 70 -39 19 -11 37 -22 40 -25 3 -3 30 -19 60
-35 30 -16 57 -31 60 -34 4 -5 125 -75 260 -152 19 -11 99 -58 178 -104 79
-46 145 -84 147 -84 3 0 201 -116 255 -150 8 -5 78 -45 155 -89 77 -45 185
-108 240 -140 55 -33 116 -68 135 -77 19 -10 37 -20 40 -24 3 -3 21 -14 42
-24 94 -50 98 -42 -82 -147 -88 -52 -177 -103 -198 -114 -20 -11 -39 -22 -42
-25 -9 -10 -172 -100 -181 -100 -5 0 -9 -4 -9 -8 0 -5 -15 -15 -32 -24 -18 -8
-75 -41 -127 -72 -51 -31 -98 -56 -104 -56 -6 0 -67 33 -137 74 -70 41 -144
84 -166 96 -21 12 -52 29 -69 39 -26 16 -76 45 -175 102 -14 8 -27 16 -30 20
-3 3 -21 13 -40 22 -19 10 -48 26 -65 37 -16 10 -41 25 -55 33 -25 14 -69 39
-132 76 -77 44 -194 113 -208 121 -125 75 -311 180 -319 180 -6 0 -11 5 -11
10 0 6 -7 10 -15 10 -8 0 -15 5 -15 11 0 5 -4 8 -9 4 -5 -3 -12 -1 -16 4 -3 5
-18 16 -33 24 -15 8 -67 38 -117 67 -114 67 -182 106 -262 151 -21 12 -42 25
-48 29 -18 14 -120 71 -137 77 -10 3 -18 9 -18 14 0 5 -4 9 -9 9 -6 0 -97 51
-204 113 -106 63 -200 117 -208 121 -8 4 -23 12 -34 19 -88 53 -148 87 -156
87 -5 0 -9 4 -9 9 0 5 -8 11 -17 14 -10 3 -40 20 -68 36 -27 17 -68 40 -90 53
-22 12 -48 27 -57 33 -9 5 -41 23 -70 39 -29 16 -55 31 -58 35 -3 3 -18 13
-35 21 -16 8 -48 26 -70 40 -22 13 -49 29 -60 35 -11 7 -29 16 -40 23 -11 6
-54 31 -96 56 -42 25 -81 46 -87 46 -7 0 -12 4 -12 10 0 5 -11 12 -25 16 -14
3 -25 10 -25 15 0 5 -5 9 -10 9 -6 0 -27 11 -48 23 -20 13 -59 37 -87 52 -83
47 -147 85 -200 116 -27 17 -58 33 -67 36 -10 3 -18 9 -18 14 0 5 -4 9 -9 9
-10 0 -352 197 -365 211 -6 5 -18 9 -27 9 -9 0 -19 7 -23 15 -3 8 -10 15 -16
15 -8 0 -102 52 -180 101 -65 40 -172 99 -180 99 -6 0 -10 4 -10 8 0 5 -16 14
-35 22 -19 8 -35 17 -35 21 0 4 -16 13 -35 20 -19 7 -35 17 -35 21 0 4 -5 8
-11 8 -6 0 -17 7 -26 15 -8 8 -19 13 -24 10 -5 -4 -9 -2 -9 4 0 5 -16 15 -35
22 -19 7 -35 16 -35 19 0 3 -21 17 -47 30 -27 14 -50 28 -53 31 -3 3 -32 20
-65 38 -32 18 -71 41 -86 52 -14 10 -28 16 -31 13 -3 -2 -11 2 -18 11 -7 8
-19 15 -26 15 -8 0 -14 5 -14 10 0 6 -4 10 -10 10 -5 0 -54 26 -107 58 -54 32
-105 61 -113 65 -8 4 -33 18 -55 32 -22 14 -47 28 -55 32 -8 3 -33 18 -55 32
-22 14 -49 30 -60 36 -35 19 -300 172 -336 194 -19 12 -41 24 -49 28 -8 3 -17
9 -20 13 -3 3 -29 18 -58 33 -40 19 -59 24 -77 17 -13 -5 -25 -7 -28 -4 -3 3
-14 -8 -26 -24 -21 -30 -21 -36 -21 -589 0 -307 3 -568 6 -580 3 -12 19 -28
35 -35 16 -7 29 -15 29 -18 0 -4 22 -17 50 -31 27 -13 50 -27 50 -31 0 -5 4
-8 10 -8 8 0 126 -65 180 -100 17 -11 128 -74 180 -103 19 -10 40 -23 45 -27
6 -5 37 -23 70 -40 33 -18 67 -38 75 -45 8 -7 20 -14 25 -16 16 -6 269 -152
275 -158 3 -3 35 -22 72 -41 38 -19 68 -38 68 -42 0 -5 6 -8 13 -8 7 0 28 -11
47 -23 19 -13 60 -37 90 -54 70 -39 413 -237 553 -319 59 -35 112 -64 117 -64
6 0 10 -4 10 -9 0 -5 8 -11 18 -14 9 -3 40 -19 67 -36 28 -16 61 -36 75 -44
14 -7 41 -23 60 -34 19 -11 75 -44 123 -72 49 -28 93 -51 98 -51 5 0 9 -4 9
-10 0 -5 4 -10 9 -10 5 0 54 -26 108 -58 54 -32 105 -61 113 -65 8 -4 33 -18
55 -32 22 -14 51 -31 65 -38 14 -6 31 -17 38 -24 7 -7 18 -13 24 -13 6 0 19
-6 27 -14 9 -7 48 -30 86 -51 39 -20 77 -44 86 -51 8 -8 19 -14 22 -14 4 0 51
-26 104 -58 54 -31 115 -66 136 -77 20 -11 37 -23 37 -28 0 -4 4 -5 10 -2 5 3
10 1 10 -4 0 -6 5 -11 11 -11 6 0 48 -22 94 -50 46 -27 88 -50 94 -50 6 0 11
-4 11 -9 0 -5 12 -14 28 -20 31 -13 101 -54 120 -71 6 -6 12 -8 12 -4 0 3 6 2
13 -4 10 -9 73 -46 222 -132 17 -9 75 -43 130 -75 55 -32 114 -66 130 -75 17
-10 95 -55 175 -101 80 -46 157 -90 173 -98 15 -8 27 -18 27 -23 0 -4 6 -8 13
-8 6 0 48 -22 92 -48 44 -26 89 -53 100 -59 11 -7 59 -34 106 -62 48 -28 90
-51 95 -51 4 0 15 -6 23 -14 9 -7 36 -25 61 -39 214 -119 214 -119 190 -137
-12 -9 -38 -25 -58 -36 -20 -10 -75 -42 -122 -70 -47 -28 -106 -62 -130 -76
-25 -14 -96 -55 -159 -92 -62 -36 -118 -66 -122 -66 -5 0 -9 -4 -9 -10 0 -5
-4 -10 -9 -10 -5 0 -58 -29 -117 -64 -93 -55 -111 -62 -131 -53 -13 5 -23 14
-23 19 0 4 -5 8 -11 8 -10 0 -464 260 -551 316 -21 13 -40 24 -43 24 -2 0 -34
18 -70 40 -36 22 -67 40 -69 40 -2 0 -56 32 -120 70 -65 39 -119 70 -120 70
-2 0 -64 36 -138 79 -74 44 -146 85 -159 93 -13 7 -27 17 -30 21 -3 5 -10 9
-15 9 -5 0 -61 31 -124 68 -63 37 -126 73 -140 80 -14 7 -27 16 -30 19 -3 3
-21 14 -40 23 -19 10 -48 26 -65 36 -136 80 -309 181 -605 352 -146 84 -277
161 -292 171 -15 11 -29 19 -32 19 -2 0 -39 20 -80 45 -42 25 -79 45 -82 45
-3 0 -25 14 -49 30 -24 17 -47 30 -50 30 -4 0 -19 8 -33 19 -15 10 -49 31 -77
46 -121 66 -211 119 -226 132 -9 7 -19 10 -22 6 -4 -3 -7 -2 -7 4 0 6 -8 13
-17 16 -10 3 -63 33 -118 66 -55 33 -122 72 -150 87 -27 14 -52 29 -55 33 -3
3 -19 13 -35 22 -32 16 -272 155 -340 196 -22 13 -48 26 -57 30 -10 3 -18 9
-18 14 0 5 -5 9 -10 9 -6 0 -40 18 -76 40 -36 22 -68 40 -70 40 -3 0 -22 11
-44 25 -22 14 -48 25 -58 25 -37 0 -79 -21 -91 -46 -8 -18 -11 -188 -11 -585
l0 -559 28 -28 c15 -15 57 -43 94 -62 37 -19 68 -38 68 -41 0 -3 16 -11 35
-19 19 -8 35 -17 35 -22 0 -4 5 -8 10 -8 6 0 40 -18 76 -40 36 -22 67 -40 69
-40 2 0 33 -18 69 -40 36 -22 68 -40 71 -40 2 0 29 -16 59 -35 30 -19 58 -35
61 -35 3 0 31 -16 61 -35 30 -19 57 -35 60 -35 3 0 26 -13 51 -30 24 -16 51
-30 59 -30 7 0 14 -3 14 -8 0 -4 21 -18 48 -32 26 -13 49 -27 52 -30 9 -9 84
-51 113 -63 15 -6 27 -15 27 -19 0 -4 6 -8 14 -8 7 0 19 -7 26 -15 7 -9 15
-13 18 -10 3 3 12 -1 21 -8 15 -13 193 -117 266 -156 17 -9 32 -19 33 -23 2
-5 8 -8 13 -8 5 0 38 -18 74 -40 36 -22 70 -40 75 -40 6 0 10 -5 10 -10 0 -6
3 -9 8 -8 4 1 18 -5 32 -14 32 -20 139 -82 210 -121 30 -17 78 -46 107 -64 29
-18 59 -33 68 -33 8 0 15 -5 15 -10 0 -6 8 -13 18 -17 9 -3 69 -36 132 -73 63
-37 131 -77 150 -87 19 -11 63 -37 97 -57 34 -20 66 -36 72 -36 6 0 11 -4 11
-9 0 -5 9 -12 19 -16 11 -3 36 -17 55 -30 20 -13 36 -22 36 -19 0 3 19 -8 42
-23 24 -16 64 -40 91 -53 26 -14 47 -28 47 -32 0 -5 5 -8 11 -8 6 0 49 -23 97
-51 48 -29 107 -63 132 -77 25 -13 50 -28 55 -32 6 -4 30 -19 55 -32 65 -36
171 -98 200 -116 14 -9 27 -17 30 -17 3 0 24 -13 47 -28 24 -15 45 -27 48 -27
3 0 22 -11 43 -24 31 -20 282 -166 402 -234 19 -11 91 -52 160 -92 69 -39 133
-74 143 -75 9 -2 21 -6 26 -10 5 -3 41 -8 79 -11 94 -8 155 11 293 91 61 36
114 65 116 65 3 0 17 8 31 19 23 15 64 39 167 95 11 6 22 13 25 16 9 9 84 51
113 63 15 6 27 15 27 19 0 4 7 8 15 8 8 0 15 5 15 11 0 5 4 8 9 5 5 -3 14 1
21 9 7 8 19 15 26 15 8 0 14 5 14 10 0 6 5 10 10 10 13 0 174 92 178 102 2 5
8 8 13 8 9 0 73 36 229 129 19 11 51 29 70 39 19 10 70 40 113 65 43 26 80 47
82 47 2 0 34 19 71 41 38 23 87 52 109 64 22 12 80 45 129 73 49 29 93 52 97
52 5 0 9 4 9 9 0 5 10 13 23 17 12 3 33 14 47 24 14 9 45 28 70 42 70 39 122
69 155 89 17 11 37 22 45 25 8 4 23 14 33 22 9 8 17 11 17 7 0 -4 8 -1 18 7 9
9 37 27 62 41 127 71 286 162 290 167 3 3 23 15 45 26 22 12 67 37 100 56 203
118 372 216 385 221 8 4 29 16 45 27 17 11 38 23 48 26 9 4 17 10 17 15 0 5 5
9 10 9 6 0 35 15 66 32 31 18 74 43 95 56 21 12 56 32 78 45 59 34 140 80 196
112 28 15 62 37 78 47 15 11 27 16 27 11 0 -4 4 -3 8 3 4 6 30 24 57 38 28 15
119 67 204 117 84 49 158 89 162 89 5 0 9 3 9 8 0 4 15 13 33 21 17 8 47 29
65 47 l32 33 0 301 c0 193 -4 300 -10 300 -5 0 -10 5 -10 11 0 11 -25 39 -35
39 -3 0 -31 16 -61 35 -30 19 -55 34 -57 34 -1 -1 -22 10 -47 25 -178 105
-232 136 -240 136 -6 0 -10 3 -10 8 0 4 -10 12 -23 17 -36 17 -112 60 -117 66
-3 3 -17 12 -32 20 -15 8 -64 35 -109 62 -45 26 -86 47 -90 47 -5 0 -9 5 -9
10 0 6 -4 10 -10 10 -5 0 -38 17 -72 38 -35 21 -84 49 -110 62 -27 14 -48 28
-48 32 0 5 -4 8 -10 8 -5 0 -33 14 -62 31 -29 18 -66 39 -83 49 -16 9 -102 59
-190 110 -88 51 -180 104 -205 118 -25 13 -49 28 -55 32 -9 7 -57 34 -130 74
-11 6 -22 14 -25 17 -4 4 -46 29 -175 101 -16 9 -37 20 -45 24 -8 4 -17 10
-20 13 -3 3 -25 17 -50 30 -25 14 -47 27 -50 30 -3 3 -21 14 -40 24 -59 31
-95 52 -100 57 -5 5 -41 26 -100 57 -19 10 -37 20 -40 23 -3 3 -26 17 -52 30
-27 14 -48 28 -48 32 0 5 -7 8 -15 8 -9 0 -21 5 -28 11 -26 22 -176 106 -182
101 -3 -3 -5 -1 -5 4 0 5 -26 23 -58 39 -31 17 -59 32 -62 35 -10 10 -65 41
-82 47 -10 3 -18 9 -18 14 0 5 -4 9 -10 9 -5 0 -58 29 -117 63 -140 83 -366
213 -423 245 -25 14 -49 28 -55 32 -9 7 -57 34 -130 74 -11 6 -22 14 -25 17
-3 3 -21 14 -40 24 -19 9 -42 23 -50 30 -8 8 -18 14 -23 14 -4 0 -17 7 -30 15
-27 16 -150 88 -249 144 -18 11 -143 83 -278 162 -135 79 -263 153 -285 164
-22 12 -41 24 -43 29 -2 4 -8 7 -13 7 -5 0 -28 11 -50 26 -22 14 -55 33 -73
43 -118 67 -202 117 -207 124 -3 5 -9 8 -13 8 -3 -1 -16 5 -29 13 -27 16 -135
79 -197 114 -25 14 -89 52 -143 84 -55 32 -103 58 -107 58 -5 0 -15 6 -22 14
-8 7 -30 21 -48 31 -19 10 -66 37 -105 60 -38 23 -97 56 -130 74 -33 18 -67
39 -75 46 -8 8 -17 13 -20 13 -5 -1 -55 28 -105 60 -11 6 -31 17 -45 23 -13 5
-27 13 -30 17 -3 4 -16 13 -30 20 -14 7 -38 20 -55 31 -16 10 -46 27 -65 38
-158 89 -380 219 -402 234 -15 11 -29 19 -32 19 -3 0 -39 20 -79 45 -41 25
-78 45 -81 45 -4 0 -27 14 -51 30 -24 17 -48 30 -53 30 -6 0 -12 3 -14 8 -3 7
-69 45 -115 67 -13 5 -23 13 -23 18 0 4 -6 7 -14 7 -7 0 -19 7 -26 15 -7 8
-15 13 -19 11 -3 -2 -15 2 -26 10 -23 17 -18 21 55 62 54 29 250 143 280 162
16 10 105 62 155 90 17 10 53 30 80 47 28 16 57 32 65 36 23 12 57 32 71 43 8
6 34 22 59 35 25 13 53 30 63 38 16 13 23 12 67 -10 27 -13 50 -27 50 -31 0
-5 6 -8 14 -8 8 0 22 -7 30 -16 9 -8 16 -12 16 -8 0 4 8 0 18 -8 9 -8 44 -30
77 -49 33 -19 69 -39 80 -46 11 -7 27 -15 35 -19 8 -4 43 -25 78 -46 34 -21
67 -38 72 -38 6 0 10 -5 10 -11 0 -5 5 -7 10 -4 6 3 10 1 10 -4 0 -6 5 -11 11
-11 6 0 29 -13 52 -29 23 -16 44 -28 47 -28 3 0 16 -6 30 -15 23 -14 113 -67
185 -108 64 -36 148 -86 183 -108 21 -12 44 -25 52 -29 8 -4 43 -24 78 -45 34
-21 67 -38 72 -38 6 0 10 -3 10 -8 0 -4 15 -13 33 -21 17 -8 34 -17 37 -20 3
-4 26 -18 53 -31 26 -14 47 -28 47 -32 0 -5 5 -8 11 -8 6 0 64 -31 129 -70 65
-39 123 -70 129 -70 6 0 11 -4 11 -10 0 -5 7 -10 15 -10 8 0 15 -5 15 -12 0
-6 3 -9 6 -5 3 3 29 -9 58 -26 28 -18 60 -37 71 -44 32 -20 127 -73 170 -97
22 -11 42 -24 43 -28 2 -5 8 -8 14 -8 5 0 29 -13 53 -30 24 -16 47 -30 51 -30
4 0 30 -14 58 -32 49 -30 75 -45 161 -93 22 -13 98 -57 169 -99 70 -42 130
-76 133 -76 2 0 24 -13 48 -30 24 -16 47 -30 52 -30 5 0 24 -11 43 -23 19 -13
55 -35 80 -49 57 -32 93 -53 205 -118 50 -29 110 -64 135 -78 25 -14 61 -35
80 -47 19 -12 42 -24 50 -28 8 -4 33 -18 55 -32 22 -13 60 -36 85 -50 25 -14
68 -39 95 -56 28 -16 61 -35 75 -42 14 -6 31 -17 38 -24 7 -7 20 -13 28 -13 8
0 14 -4 14 -10 0 -5 4 -10 8 -10 10 0 211 -114 229 -130 7 -5 14 -10 17 -10 3
0 43 -22 88 -49 46 -27 99 -58 118 -69 19 -10 76 -43 125 -72 50 -29 104 -60
120 -70 17 -9 54 -31 83 -49 29 -17 57 -31 62 -31 6 0 10 -4 10 -10 0 -5 4
-10 9 -10 5 0 103 -55 218 -121 114 -67 226 -132 248 -144 22 -13 114 -66 204
-119 90 -53 164 -96 166 -96 3 0 181 -104 205 -120 8 -6 22 -13 30 -17 8 -4
33 -18 55 -32 22 -13 65 -38 95 -54 30 -16 62 -34 70 -41 15 -11 27 -18 109
-64 25 -14 63 -36 83 -49 21 -12 42 -23 48 -23 5 0 10 -4 10 -10 0 -5 5 -10
11 -10 6 0 23 -8 37 -19 34 -24 98 -20 126 9 21 20 21 30 23 591 3 509 1 573
-13 594 -9 14 -23 25 -30 25 -8 0 -14 5 -14 10 0 6 -6 10 -14 10 -8 0 -16 3
-18 8 -1 4 -19 15 -38 25 -19 9 -48 26 -65 36 -16 11 -52 32 -80 46 -27 15
-67 39 -90 53 -22 15 -42 27 -45 27 -3 0 -16 8 -30 16 -14 9 -108 64 -210 122
-102 59 -190 111 -197 117 -7 5 -19 10 -28 10 -8 0 -15 4 -15 8 0 5 -12 15
-27 23 -16 7 -44 23 -63 35 -19 11 -55 32 -80 46 -25 14 -101 58 -170 99 -69
40 -150 86 -180 103 -30 16 -57 32 -60 36 -3 3 -16 11 -30 18 -14 7 -43 23
-65 37 -22 14 -50 29 -62 35 -11 5 -24 14 -28 20 -3 5 -11 8 -16 5 -5 -4 -9
-1 -9 4 0 6 -7 11 -15 11 -8 0 -15 5 -15 10 0 6 -4 10 -10 10 -5 0 -64 32
-132 71 -67 40 -136 80 -153 89 -16 10 -86 50 -155 90 -151 88 -175 102 -220
126 -19 11 -37 22 -40 25 -3 3 -41 25 -84 50 -83 46 -94 52 -194 112 -35 20
-67 37 -73 37 -5 0 -9 5 -9 10 0 6 -4 10 -9 10 -6 0 -47 22 -93 50 -46 27 -88
50 -95 50 -6 0 -13 3 -15 8 -3 7 -176 110 -318 189 -14 8 -38 23 -55 33 -16
11 -43 26 -60 35 -16 8 -43 23 -60 34 -16 10 -46 27 -65 38 -19 11 -59 34 -88
52 -29 17 -57 31 -62 31 -6 0 -10 4 -10 8 0 4 -12 13 -27 20 -16 6 -41 20 -58
30 -29 18 -63 38 -142 83 -21 12 -50 30 -65 41 -16 11 -28 16 -28 11 0 -4 -4
-3 -8 2 -4 6 -20 18 -37 27 -113 63 -181 102 -185 107 -3 3 -14 11 -25 17 -86
46 -111 60 -115 64 -3 3 -16 11 -29 18 -13 8 -38 22 -55 31 -34 20 -132 77
-174 102 -15 9 -54 31 -87 49 -33 18 -71 40 -85 50 -14 9 -87 52 -163 96 -76
43 -146 84 -155 89 -9 6 -45 26 -79 45 -35 19 -63 38 -63 42 0 4 24 21 53 37
28 16 57 33 62 38 6 4 27 17 47 28 20 11 74 41 119 68 45 26 86 47 90 47 5 0
9 5 9 10 0 6 5 10 10 10 6 0 51 25 101 55 50 30 92 55 95 55 2 0 21 11 42 23
20 13 64 39 97 57 33 18 68 39 78 45 16 11 36 3 150 -62 73 -42 135 -81 139
-87 4 -6 8 -8 8 -4 0 3 142 -76 316 -178 173 -101 319 -184 324 -184 4 0 10
-4 12 -8 4 -9 167 -102 179 -102 5 0 9 -4 9 -10 0 -5 5 -10 10 -10 6 0 52 -25
102 -55 50 -30 97 -55 105 -55 7 0 13 -3 13 -8 0 -4 17 -16 38 -27 20 -11 39
-22 42 -25 3 -3 25 -16 50 -29 25 -13 52 -30 61 -37 8 -8 18 -14 21 -14 3 0
67 -36 143 -80 76 -44 139 -80 141 -80 2 0 28 -16 58 -35 30 -19 58 -35 61
-35 3 0 24 -12 46 -26 36 -22 85 -50 154 -88 11 -6 22 -14 25 -17 3 -4 28 -18
55 -33 28 -15 57 -31 65 -36 53 -33 272 -160 275 -160 2 0 49 -27 104 -60 214
-127 553 -320 562 -320 5 0 9 -3 9 -8 0 -4 17 -16 38 -27 78 -41 157 -89 160
-97 2 -4 12 -8 23 -8 10 0 19 -3 19 -7 0 -5 31 -24 68 -43 37 -19 69 -38 72
-41 3 -3 25 -16 50 -30 25 -13 47 -27 48 -31 2 -5 8 -8 12 -8 5 0 69 -35 142
-78 74 -43 140 -81 148 -85 8 -4 29 -16 45 -27 17 -11 44 -26 60 -35 17 -8 48
-26 70 -40 22 -14 56 -33 75 -43 19 -9 37 -19 40 -22 12 -12 59 -28 65 -22 4
4 10 7 15 7 5 0 22 10 38 22 l29 21 1 574 c0 459 -3 577 -13 594 -8 12 -38 34
-67 49 -29 15 -55 30 -58 34 -3 4 -16 12 -30 19 -14 7 -34 18 -45 25 -11 7
-42 25 -70 40 -27 15 -57 31 -65 37 -36 23 -152 90 -156 90 -2 0 -33 18 -69
40 -36 22 -69 40 -74 40 -5 0 -11 3 -13 8 -3 7 -69 45 -115 67 -13 5 -23 13
-23 18 0 4 -6 7 -12 7 -7 0 -41 18 -74 39 -34 21 -71 42 -83 46 -11 3 -21 11
-21 16 0 5 -4 9 -10 9 -5 0 -60 30 -122 66 -128 74 -111 64 -243 141 -112 65
-117 67 -200 113 -33 18 -72 41 -87 51 -14 11 -29 19 -32 19 -3 0 -30 16 -60
35 -30 19 -57 35 -60 35 -2 0 -39 20 -80 45 -42 25 -81 45 -86 45 -6 0 -10 5
-10 10 0 6 -4 10 -9 10 -5 0 -65 32 -133 71 -67 39 -141 82 -163 94 -22 13
-118 68 -214 124 -95 56 -175 101 -178 101 -2 0 -32 18 -67 40 -35 22 -68 40
-74 40 -6 0 -17 6 -24 13 -11 11 -253 152 -418 245 -25 13 -72 40 -105 60 -33
19 -73 42 -90 52 -16 9 -86 49 -154 89 -68 39 -127 71 -132 71 -5 0 -9 5 -9
10 0 6 -4 10 -10 10 -5 0 -55 27 -111 60 -55 33 -104 60 -109 60 -4 0 -18 8
-31 19 -13 10 -53 33 -89 52 -36 19 -67 37 -70 40 -3 3 -21 14 -40 24 -19 9
-43 24 -52 33 -10 8 -18 11 -18 7 0 -4 -8 -1 -17 7 -10 8 -34 21 -53 27 -44
15 -176 23 -215 12z"/>
</g>
</svg>
