<svg width="23" height="24" viewBox="0 0 23 24" fill="none" xmlns="http://www.w3.org/2000/svg">
<path d="M23 4.439L17.71 0L16.2265 1.7595L21.5165 6.1985L23 4.439ZM6.762 1.7595L5.29 0L0 4.4275L1.4835 6.187L6.762 1.7595ZM12.075 7.061H10.35V13.961L15.8125 17.2385L16.675 15.824L12.075 13.0985V7.061ZM11.5 2.461C5.7845 2.461 1.15 7.0955 1.15 12.811C1.15 18.5265 5.773 23.161 11.5 23.161C17.2155 23.161 21.85 18.5265 21.85 12.811C21.85 7.0955 17.2155 2.461 11.5 2.461ZM11.5 20.861C7.0495 20.861 3.45 17.2615 3.45 12.811C3.45 8.3605 7.0495 4.761 11.5 4.761C15.9505 4.761 19.55 8.3605 19.55 12.811C19.55 17.2615 15.9505 20.861 11.5 20.861Z" fill="white"/>
</svg>
